ModelForces
version=1
nRows=4
nColumns=94
inDegrees=yes

This file contains the forces exerted on a model during a simulation.

A force is a generalized force, meaning that it can be either a force (N) or a torque (Nm).

Units are S.I. units (second, meters, Newtons, ...)
Angles are in degrees.

endheader 
time	addbrev_l	addlong_l	addmagDist_l	addmagIsch_l	addmagMid_l	addmagProx_l	bflh_l	bfsh_l	edl_l	ehl_l	fdl_l	fhl_l	gaslat_l	gasmed_l	glmax1_l	glmax2_l	glmax3_l	glmed1_l	glmed2_l	glmed3_l	glmin1_l	glmin2_l	glmin3_l	grac_l	iliacus_l	perbrev_l	perlong_l	piri_l	psoas_l	recfem_l	sart_l	semimem_l	semiten_l	soleus_l	tfl_l	tibant_l	tibpost_l	vasint_l	vaslat_l	vasmed_l	addbrev_r	addlong_r	addmagDist_r	addmagIsch_r	addmagMid_r	addmagProx_r	bflh_r	bfsh_r	edl_r	ehl_r	fdl_r	fhl_r	gaslat_r	gasmed_r	glmax1_r	glmax2_r	glmax3_r	glmed1_r	glmed2_r	glmed3_r	glmin1_r	glmin2_r	glmin3_r	grac_r	iliacus_r	perbrev_r	perlong_r	piri_r	psoas_r	recfem_r	sart_r	semimem_r	semiten_r	soleus_r	tfl_r	tibant_r	tibpost_r	vasint_r	vaslat_r	vasmed_r	lumbar_extension	lumbar_bending	lumbar_rotation	arm_flex_l	arm_add_l	arm_rot_l	arm_flex_r	arm_add_r	arm_rot_r	elbow_flex_l	elbow_flex_r	pro_sup_l	pro_sup_r	
          7.32000000	         18.65546723	          7.94787508	          4.23043194	          3.49844870	         23.58423096	         52.00320934	         63.80055536	         40.44365861	         51.02136525	         12.14352847	         12.47415683	         12.40853256	         15.72738625	         82.58234479	         23.21726194	        147.36391639	        231.17637478	          9.99494047	          9.14512143	         13.79393272	          2.73416819	          3.98693587	          3.61618798	         11.44290008	          9.29907783	         15.55433226	         59.91104636	         68.41817715	        681.01192579	        448.34386358	         57.75103905	         21.41654988	          5.39668807	         66.17124419	          2.81615204	        130.30247057	         16.96606557	         18.89624636	         56.16187086	         27.75161741	         33.79360754	         60.95657694	         16.03788291	         12.79225647	         22.47037921	         36.84319818	         70.90177328	         17.45886300	          2.10456800	          5.90993508	         19.80521004	         24.46843722	         23.08575221	         41.59556568	         22.73253205	        124.07441267	        123.87362719	          1.89488893	          0.72469183	          2.04092831	          0.01987827	          0.02976435	          0.00062513	          7.56472576	         17.52335878	         24.51519804	        109.38215770	          0.00649123	        161.67183083	        378.30043477	          8.86426706	         46.16181003	         12.61998142	         13.59954791	          0.01544571	        127.17124116	         56.88672983	         44.13437788	        220.52655748	         68.60871112	        -25.73535015	          2.61527324	          3.15602482	          4.48990145	        -30.58006222	         -4.65554020	         -6.02416481	        -14.01691208	         -8.12438125	         -8.00681799	        -57.65666831	         -0.05192492	          1.98006657	
          7.33000000	         25.26995731	        124.62836883	          4.78854467	          4.29414302	         23.15354414	        137.32923393	         80.34836123	         34.96738571	         45.10676156	         11.02932587	          9.74423380	         15.11125375	         24.69722718	         65.95832532	         18.60264833	        118.91314703	        201.60775309	          9.89165623	          8.66436166	         10.80492511	          2.82109704	          3.85000276	          3.75313237	         20.11566075	          9.77800805	         14.63391857	         47.58478909	         56.84663177	        592.51119718	        501.21983010	         80.93123307	         23.70664871	          5.31203026	         57.39082500	          2.55097018	        123.16831614	         27.06796916	         13.65038568	         40.77498702	         20.41324002	         27.48030527	         52.04686901	         12.76467231	          9.86117040	         18.55829923	         31.03288274	         57.54791364	         15.73346584	         56.33840269	          1.71502426	         15.85472128	         19.31326284	         23.07680036	         38.33170175	         18.47948033	         98.15236961	         94.33739987	          1.86067563	          0.94374004	          1.87249404	          0.12646005	          0.20017470	         -0.00000042	          6.16390198	        321.75290370	         20.17005679	         99.64209254	          0.00135327	        441.63084476	        416.89641575	         27.84552419	         38.71425663	         10.32217769	         17.92958881	          1.59837750	        123.86955848	         50.30798884	         33.69664583	        170.81406368	         52.72968476	        -93.88784371	         31.09398322	         -5.90307493	        -29.19963739	        -60.28706457	          9.40163072	        -42.01934970	        -47.82258786	         34.01534362	        -14.62292102	         -4.87538045	          0.44797051	         -8.24287100	
          7.34000000	         51.93487840	         43.66893641	          5.05585262	          4.32565763	         22.36881170	        119.06198028	         79.30632217	         30.73379786	         42.27139676	          9.28762098	          7.19816213	         11.53704593	         20.78693674	         52.35679786	         13.50400235	         87.34142691	        157.94159795	          9.01783449	          7.35438965	          8.45907928	          2.79376431	          3.50316503	          2.88718097	         18.85435127	         11.59009793	         14.39670701	         43.70861449	         41.74453082	        694.78008852	        497.30480214	         67.64850869	         20.39063979	          4.68092677	         45.61914537	          2.35189562	        101.66294978	         19.13321358	         11.78086381	         32.99624290	         17.62045822	         21.46359297	         42.44700689	          9.25948246	          6.53426891	         14.33757329	         25.20647496	         38.52873915	         10.53681041	        113.52289239	         20.58243879	         12.94294300	         18.00007530	         32.91167625	         65.15350268	         15.33738686	         77.25148804	         64.18251378	          2.34252216	          1.51939229	          2.18953825	          0.43461024	          0.69211072	          0.56439064	          4.84353722	        369.97339731	         15.91650397	         81.60739854	          7.36887905	        698.27473375	        416.49458471	         35.21700863	         28.02745818	          7.83674809	         29.71180606	          2.74622753	        110.71235328	         40.35249321	         24.67068003	        127.02609180	         39.07703169	       -107.81840609	         38.81141713	        -18.59017220	          0.18887565	        -82.50575117	          1.40719890	        -69.10367341	        -18.60625564	         57.01462796	        -14.16881848	         34.05909280	          0.31740903	         -6.15913623	
          7.35000000	         92.65170855	        295.46640235	          5.50219134	          4.67955993	         32.38049311	        227.14267854	         46.33859530	         26.17744176	         43.52875815	          8.53016277	          5.24931496	          8.29558852	         15.95897770	         48.26058623	          9.66767014	         63.29705874	        122.50102484	          8.55177652	          6.24980499	          6.43433716	          2.87191088	          3.15604765	          1.54338901	         24.20384142	         12.16191024	         18.94220937	         45.94354104	         17.92172984	        973.06722511	        460.68700792	         78.20814419	         20.94066180	          4.65291955	         32.22769870	          1.98610497	        109.01759494	         13.05471044	         17.15518722	         52.82719582	         26.83347373	         16.43102008	         33.42615756	          6.70637409	          4.55090230	         10.91098981	         20.16996434	         32.55978790	         73.63049862	        147.47803845	         15.28835432	         10.80150077	         15.07550313	         31.45896735	         63.89502150	         13.34224173	         65.02026477	         47.49547902	          2.38791294	          2.36715681	          2.51098940	          0.62565958	          1.18384121	          1.28759233	          3.50571813	        312.16014373	         13.75326206	         67.88035763	         10.22581448	        569.18845400	        432.11068352	         75.57369118	         20.79501299	          5.80987240	         37.62607239	          3.63696599	        111.36770722	         36.28176085	         20.33099312	        105.05413291	         32.23740663	       -113.71854203	        103.72026050	         11.62741186	         32.55158833	        -33.49958179	        -11.37148150	        -88.63533690	         23.54146756	         -7.12119800	          4.92999940	         62.78373707	         -0.54889258	          2.73485949	
